<svg xmlns="http://www.w3.org/2000/svg" version="1.1" viewBox="0 0 244 70" width="244" height="70">
    <path fill="#c8c8c8" fill-opacity=".004"
        d="M 0.00 0.00 L 25.36 0.00 Q 20.07 0.50 17.43 6.19 Q 14.88 11.72 8.67 14.98 Q 5.34 16.73 4.28 18.09 C 0.38 23.07 3.60 26.47 4.07 31.27 Q 4.52 36.01 3.16 40.59 C 1.42 46.46 2.67 49.56 8.09 52.52 Q 14.56 56.07 17.98 62.67 Q 19.32 65.25 20.76 66.20 C 26.07 69.73 28.72 66.48 33.85 66.14 Q 36.50 65.97 39.14 66.23 C 43.73 66.69 47.06 69.70 51.90 66.11 Q 53.25 65.11 55.01 61.91 C 57.57 57.24 60.76 54.65 65.41 52.17 C 69.95 49.75 71.04 45.52 69.42 40.76 Q 67.24 34.33 69.24 27.86 C 70.48 23.84 70.87 21.34 68.41 18.21 Q 67.68 17.27 63.63 14.79 Q 57.77 11.21 54.07 3.99 Q 52.32 0.58 47.50 0.00 L 244.00 0.00 L 244.00 70.00 L 0.00 70.00 L 0.00 0.00 Z M 221.97 17.26 Q 222.60 20.18 221.14 22.72 Q 220.89 23.14 220.43 23.32 L 211.26 26.82 Q 210.79 27.00 210.44 26.65 L 209.83 26.04 Q 209.37 25.57 208.80 25.91 Q 206.61 27.20 206.76 29.70 Q 206.79 30.31 207.40 30.28 Q 210.06 30.13 213.75 28.72 Q 221.96 25.57 230.70 22.52 A 0.77 0.77 0.0 0 1 231.48 23.82 Q 229.16 25.94 226.00 26.06 Q 225.46 26.08 225.03 26.39 Q 223.20 27.67 221.02 28.25 A 1.02 1.02 0.0 0 0 221.46 30.24 L 223.17 29.94 Q 223.68 29.85 223.45 30.32 Q 222.11 33.01 224.53 34.68 A 0.75 0.75 0.0 0 1 224.25 36.04 Q 218.98 37.09 216.80 41.86 Q 216.62 42.26 216.73 42.69 Q 218.26 48.72 223.49 46.42 Q 226.69 45.01 227.24 40.67 Q 227.33 40.01 227.98 40.11 Q 230.89 40.59 232.04 37.89 A 0.87 0.87 0.0 0 0 231.79 36.86 Q 230.10 35.47 227.92 36.00 A 0.71 0.71 0.0 0 1 227.15 35.68 L 224.85 32.05 Q 224.57 31.60 224.86 31.17 C 225.74 29.84 227.17 27.23 228.72 26.70 C 230.38 26.13 231.82 26.52 233.16 25.49 C 235.01 24.06 235.38 20.68 232.82 20.01 C 231.12 19.55 229.23 20.40 227.54 21.05 A 0.41 0.41 0.0 0 1 227.15 20.34 L 231.06 17.46 A 0.95 0.94 -14.4 0 0 231.42 16.86 Q 231.75 14.67 229.84 13.60 A 0.56 0.56 0.0 0 1 229.78 12.66 L 233.19 10.20 A 1.10 1.09 -23.6 0 0 233.62 9.11 Q 233.34 7.70 231.77 7.17 A 0.52 0.52 0.0 0 1 231.47 6.45 L 232.65 4.07 A 1.10 1.10 0.0 0 0 231.19 2.59 C 230.15 3.09 229.68 3.84 229.60 5.06 Q 229.25 10.15 225.22 13.38 A 0.40 0.39 77.7 0 1 224.59 12.97 L 225.76 8.18 A 1.40 1.40 0.0 0 0 223.44 6.82 L 220.98 9.10 Q 220.63 9.42 220.32 9.07 L 219.32 7.93 Q 218.95 7.51 218.47 7.81 Q 216.19 9.26 217.55 11.53 Q 217.81 11.96 217.71 12.46 Q 216.77 17.28 217.22 22.19 A 0.65 0.64 -16.6 0 0 218.17 22.70 Q 221.43 20.96 221.68 17.28 Q 221.75 16.28 221.97 17.26 Z M 107.81 21.49 L 110.45 16.73 A 1.02 1.02 0.0 0 1 112.36 17.24 Q 112.28 21.52 112.26 25.38 C 112.24 27.37 111.47 29.57 111.78 31.87 C 112.27 35.48 112.19 37.45 112.18 40.44 A 0.74 0.74 0.0 0 1 111.09 41.09 L 109.39 40.17 A 0.41 0.41 0.0 0 0 108.83 40.73 L 111.90 46.40 Q 112.23 46.99 112.82 46.67 C 115.90 45.02 114.96 41.37 114.62 38.52 C 114.37 36.48 114.94 34.56 114.65 32.40 Q 114.28 29.59 114.45 28.06 Q 115.16 21.67 114.89 15.19 Q 114.86 14.64 114.32 14.57 L 112.72 14.37 A 0.57 0.57 0.0 0 1 112.46 13.34 L 119.40 8.53 A 1.30 1.30 0.0 0 0 119.21 6.28 C 117.78 5.62 116.70 5.96 115.39 6.87 C 105.24 13.97 98.87 18.34 93.13 28.29 Q 91.94 30.35 91.57 33.49 Q 91.44 34.52 90.49 35.27 Q 89.97 35.68 90.04 35.02 Q 90.56 30.67 91.34 26.33 C 91.65 24.62 92.59 23.93 93.76 22.81 Q 94.15 22.44 94.23 21.91 C 94.61 19.26 92.23 18.91 90.52 18.01 Q 90.07 17.78 89.64 18.03 Q 87.95 19.01 88.31 21.24 C 89.18 26.61 87.04 32.93 87.56 39.01 C 87.76 41.26 89.98 42.16 91.67 40.35 Q 92.88 39.05 93.86 37.56 Q 94.12 37.17 94.13 36.70 C 94.18 34.29 93.95 31.77 94.95 29.55 Q 99.44 19.66 109.15 14.54 A 0.18 0.18 0.0 0 1 109.39 14.78 L 102.80 26.97 A 1.83 1.77 63.7 0 0 102.58 27.66 Q 102.15 31.10 104.15 30.17 Q 104.63 29.95 105.01 29.43 Q 105.90 28.21 105.73 27.26 A 0.52 0.52 0.0 0 1 106.72 26.98 Q 107.67 29.43 110.07 28.35 A 1.12 1.12 0.0 0 0 110.72 27.40 Q 110.93 24.21 109.96 21.13 Q 109.78 20.56 109.32 20.94 L 108.22 21.83 A 0.27 0.27 0.0 0 1 107.81 21.49 Z M 152.05 20.04 Q 148.08 25.37 145.74 31.57 A 0.47 0.47 0.0 0 1 145.02 31.78 Q 143.91 30.97 142.42 31.01 A 1.26 1.26 0.0 0 0 141.98 33.44 L 144.62 34.50 Q 145.06 34.68 145.00 35.16 Q 144.63 38.18 147.61 39.28 Q 148.06 39.45 148.42 39.15 Q 149.65 38.19 151.18 38.49 Q 151.72 38.60 151.56 39.14 Q 150.90 41.31 149.64 43.12 Q 148.89 44.21 148.82 45.01 Q 148.72 46.21 149.31 46.92 A 1.13 1.13 0.0 0 0 151.13 46.83 Q 153.38 43.48 154.28 39.52 A 2.07 2.02 72.0 0 1 154.71 38.65 L 156.15 36.92 A 0.56 0.56 0.0 0 0 156.03 36.10 C 154.04 34.77 154.15 32.57 156.30 31.47 Q 158.54 30.33 160.04 31.78 A 1.30 1.30 0.0 0 0 161.88 29.95 Q 159.87 27.86 157.25 29.48 A 0.78 0.77 -89.0 0 1 156.20 28.39 Q 156.73 27.59 156.63 26.31 Q 156.51 24.64 156.19 24.21 Q 155.50 23.29 153.14 23.73 A 1.19 1.19 0.0 0 0 152.63 25.85 Q 153.36 26.40 153.24 27.32 A 0.49 0.49 0.0 0 1 152.48 27.66 L 151.71 27.13 A 0.75 0.74 -50.2 0 0 150.76 27.22 Q 149.49 28.51 149.96 30.37 Q 150.12 31.05 149.43 31.12 L 148.64 31.20 A 0.69 0.69 0.0 0 1 148.00 30.13 Q 149.01 28.61 149.77 26.71 Q 151.73 21.76 156.08 18.98 A 1.18 1.18 0.0 0 0 155.41 16.81 Q 150.98 16.92 147.91 20.08 Q 147.70 20.29 147.42 20.33 L 146.93 20.39 A 0.50 0.50 0.0 0 1 146.43 19.64 L 152.95 8.36 A 1.60 1.60 0.0 0 0 150.44 6.42 L 148.08 8.74 A 0.47 0.47 0.0 0 0 148.02 9.34 L 148.67 10.31 A 0.60 0.60 0.0 0 1 148.68 10.94 Q 145.57 15.98 144.21 21.75 A 1.60 1.60 0.0 0 0 146.78 23.35 L 151.48 19.49 A 0.40 0.40 0.0 0 1 152.05 20.04 Z M 89.25 7.77 L 89.25 10.83 A 1.26 1.26 0.0 0 0 90.51 12.08 L 91.24 12.08 A 3.79 2.62 -0.1 0 0 95.03 9.45 L 95.03 9.11 A 3.79 2.62 -0.1 0 0 91.24 6.50 L 90.51 6.50 A 1.26 1.26 0.0 0 0 89.25 7.77 Z M 181.49 29.97 Q 180.73 32.32 178.73 35.45 Q 176.52 38.89 173.20 38.86 Q 172.55 38.85 172.48 39.49 L 172.37 40.44 A 1.41 1.41 0.0 0 0 174.25 41.93 Q 184.12 38.39 184.93 27.85 A 2.02 2.01 5.5 0 1 187.17 26.01 C 188.55 26.17 190.72 26.33 191.78 25.28 Q 192.87 24.22 191.85 22.72 Q 190.22 20.30 186.93 22.31 Q 186.05 22.85 186.12 21.82 L 186.51 16.22 A 0.62 0.54 -31.4 0 1 186.59 15.97 Q 188.80 12.49 185.77 10.03 A 1.73 1.73 0.0 0 0 182.95 11.34 Q 182.86 16.04 182.88 21.24 Q 182.89 25.04 179.76 25.46 C 177.61 25.75 175.68 23.92 174.22 27.22 Q 174.02 27.67 174.28 28.09 C 176.15 31.14 178.47 29.11 181.02 29.28 Q 181.69 29.33 181.49 29.97 Z M 136.54 16.60 C 135.83 16.10 133.56 15.15 132.48 15.23 A 1.47 1.46 81.0 0 0 131.17 17.04 C 133.18 25.25 140.75 19.61 136.54 16.60 Z M 133.73 36.56 Q 133.32 33.08 134.93 30.10 C 135.60 28.86 137.00 28.12 137.79 26.68 A 0.68 0.68 0.0 0 0 137.66 25.85 L 135.49 23.79 Q 135.03 23.35 134.49 23.68 Q 132.13 25.15 133.65 27.21 Q 133.96 27.64 133.75 28.12 Q 132.17 31.74 131.54 35.62 C 131.09 38.45 129.03 41.26 132.06 44.13 A 0.64 0.64 0.0 0 0 132.91 44.16 Q 137.14 40.75 137.38 35.27 Q 137.41 34.75 137.64 34.28 Q 138.43 32.63 138.61 30.59 A 0.60 0.60 0.0 0 0 137.47 30.29 L 134.62 36.69 A 0.47 0.46 -36.4 0 1 133.73 36.56 Z M 194.43 41.83 L 196.39 40.09 A 0.93 0.93 0.0 0 0 196.47 38.78 L 195.38 37.55 A 7.99 1.97 48.3 0 0 188.59 32.90 L 188.19 33.26 A 7.99 1.97 48.3 0 0 192.03 40.53 L 193.12 41.76 A 0.93 0.93 0.0 0 0 194.43 41.83 Z M 103.5108 64.3445 A 5.75 5.20 87.5 0 0 108.4551 58.3732 A 5.75 5.20 87.5 0 0 103.0092 52.8555 A 5.75 5.20 87.5 0 0 98.0649 58.8268 A 5.75 5.20 87.5 0 0 103.5108 64.3445 Z M 202.98 55.53 Q 204.54 53.59 206.64 55.15 Q 207.08 55.48 207.24 56.02 Q 207.52 56.93 208.50 56.63 A 0.56 0.55 74.8 0 0 208.88 55.96 C 207.88 51.71 202.30 51.97 200.68 56.00 Q 200.49 56.47 200.87 56.80 L 203.45 59.00 Q 203.87 59.35 204.42 59.27 Q 206.20 58.98 207.26 60.34 Q 207.59 60.77 207.32 61.24 C 205.72 64.04 202.98 62.29 201.85 60.31 Q 201.53 59.74 201.02 60.15 L 200.75 60.37 Q 200.33 60.71 200.56 61.20 C 202.58 65.42 207.64 65.39 209.46 61.02 Q 209.68 60.47 209.25 60.07 L 207.17 58.08 Q 206.76 57.69 206.19 57.67 Q 204.31 57.62 203.05 56.42 Q 202.61 56.00 202.98 55.53 Z M 218.80 55.43 L 218.80 63.51 Q 218.80 64.21 219.51 64.19 L 219.92 64.18 Q 220.51 64.17 220.51 63.58 L 220.50 55.42 A 0.62 0.61 4.8 0 1 221.22 54.82 L 223.04 55.15 A 0.59 0.59 0.0 0 0 223.74 54.55 L 223.70 53.35 Q 223.68 52.69 223.03 52.85 Q 219.87 53.65 216.68 52.91 A 0.97 0.96 -88.2 0 0 215.52 54.01 L 215.62 54.62 Q 215.71 55.16 216.25 55.10 L 218.17 54.87 A 0.57 0.56 -3.2 0 1 218.80 55.43 Z M 89.55 59.25 L 93.01 59.25 Q 94.71 59.25 94.16 60.86 Q 93.52 62.74 94.62 64.16 A 0.68 0.68 0.0 0 0 95.83 63.75 L 95.90 53.91 Q 95.91 53.13 95.16 53.31 L 94.52 53.46 Q 93.91 53.61 93.95 54.23 L 94.12 56.76 A 0.65 0.64 -2.5 0 1 93.48 57.45 L 89.51 57.46 A 0.49 0.49 0.0 0 1 89.04 56.83 Q 89.56 55.02 88.83 53.46 A 0.77 0.77 0.0 0 0 87.36 53.82 Q 87.57 58.49 87.44 63.06 Q 87.42 63.63 87.66 63.89 Q 88.02 64.28 88.64 64.04 A 0.83 0.82 78.6 0 0 89.17 63.24 L 89.10 59.71 Q 89.09 59.25 89.55 59.25 Z M 123.94 60.93 L 126.92 60.97 A 0.89 0.88 75.9 0 1 127.70 61.44 L 129.09 64.06 A 0.92 0.92 0.0 0 0 130.75 63.27 L 126.76 53.83 A 1.22 1.22 0.0 0 0 124.51 53.84 L 120.69 63.24 A 0.78 0.77 85.8 0 0 121.80 64.20 Q 123.33 63.31 123.38 61.48 A 0.56 0.56 0.0 0 1 123.94 60.93 Z M 147.07 62.46 C 142.39 63.93 143.52 56.24 143.52 53.99 A 0.60 0.60 0.0 0 0 142.89 53.39 L 142.11 53.42 Q 141.51 53.44 141.51 54.04 C 141.51 56.27 141.02 60.14 142.11 62.07 C 143.66 64.81 147.51 65.08 149.35 62.75 C 151.01 60.64 150.49 56.48 150.37 53.73 A 0.65 0.64 75.5 0 0 149.45 53.18 L 148.83 53.48 A 0.65 0.65 0.0 0 0 148.46 54.08 L 148.53 60.45 A 2.08 2.08 0.0 0 1 147.07 62.46 Z M 166.4144 54.0251 A 0.83 0.83 0.0 0 0 165.5887 53.1908 L 165.3287 53.1894 A 0.83 0.83 0.0 0 0 164.4944 54.0150 L 164.4456 63.3349 A 0.83 0.83 0.0 0 0 165.2713 64.1692 L 165.5313 64.1706 A 0.83 0.83 0.0 0 0 166.3656 63.3450 L 166.4144 54.0251 Z M 172.27 60.93 Q 171.66 57.56 169.88 54.03 Q 169.47 53.22 168.82 53.21 A 0.72 0.72 0.0 0 0 168.13 54.19 L 171.71 63.50 A 1.12 1.12 0.0 0 0 173.80 63.52 L 177.71 53.98 Q 177.95 53.39 177.31 53.30 Q 176.79 53.22 176.35 53.40 Q 175.84 53.61 175.57 54.38 Q 174.52 57.42 173.31 61.00 A 0.54 0.54 0.0 0 1 172.27 60.93 Z M 181.76 59.25 L 186.31 59.25 Q 187.13 59.25 187.01 58.44 L 186.95 58.02 A 0.56 0.56 0.0 0 0 186.40 57.54 L 181.84 57.60 A 0.73 0.73 0.0 0 1 181.10 56.83 L 181.16 55.46 Q 181.18 54.86 181.78 54.89 L 186.39 55.08 Q 187.14 55.11 187.14 54.35 L 187.13 53.43 Q 187.12 52.99 186.68 53.00 L 179.90 53.22 A 0.60 0.60 0.0 0 0 179.32 53.82 L 179.29 62.89 A 1.35 1.35 0.0 0 0 180.64 64.24 L 186.85 64.25 Q 187.47 64.25 187.40 63.64 L 187.30 62.82 Q 187.22 62.19 186.58 62.22 L 181.87 62.46 A 0.59 0.59 0.0 0 1 181.25 61.87 L 181.26 59.74 Q 181.27 59.25 181.76 59.25 Z M 191.43 60.41 A 1.55 1.55 0.0 0 1 194.21 59.44 L 197.58 63.89 Q 197.90 64.31 198.42 64.23 L 198.81 64.16 Q 199.38 64.08 199.15 63.55 Q 198.12 61.18 196.14 59.53 A 0.43 0.43 0.0 0 1 196.32 58.78 Q 198.01 58.42 198.72 56.55 A 2.16 2.15 20.8 0 0 197.47 53.78 Q 193.92 52.41 190.20 53.42 Q 189.74 53.54 189.74 54.01 L 189.75 63.50 Q 189.75 64.00 190.25 64.06 L 190.77 64.14 A 0.65 0.65 0.0 0 0 191.50 63.48 L 191.43 60.41 Z M 229.41 57.42 L 226.44 53.13 A 0.53 0.53 0.0 0 0 225.57 53.12 Q 225.38 53.40 225.32 53.75 Q 225.24 54.18 225.62 54.73 Q 227.01 56.75 228.48 58.74 A 1.56 1.55 -63.2 0 1 228.78 59.66 L 228.76 63.57 Q 228.76 64.14 229.32 64.18 L 229.77 64.22 A 0.62 0.61 2.1 0 0 230.44 63.60 L 230.40 59.91 A 1.28 1.28 0.0 0 1 230.62 59.16 Q 232.29 56.66 234.20 54.32 Q 234.52 53.93 234.47 53.63 Q 234.39 53.12 233.59 52.95 A 0.81 0.80 22.0 0 0 232.72 53.31 L 230.15 57.40 Q 229.79 57.97 229.41 57.42 Z M 112.98 59.25 L 117.00 59.25 Q 117.49 59.25 117.49 59.75 L 117.47 63.60 A 0.63 0.63 0.0 0 0 118.10 64.23 L 118.54 64.23 Q 119.06 64.23 119.06 63.71 L 119.04 53.93 Q 119.04 53.31 118.43 53.37 L 118.08 53.41 Q 117.40 53.48 117.42 54.17 L 117.49 56.85 A 0.61 0.60 89.5 0 1 116.89 57.47 L 113.07 57.44 A 0.62 0.62 0.0 0 1 112.45 56.82 L 112.47 54.14 Q 112.47 53.55 111.90 53.39 L 111.34 53.24 Q 110.79 53.08 110.79 53.65 L 110.75 63.58 A 0.64 0.62 6.4 0 0 111.25 64.19 Q 112.41 64.43 112.43 63.38 Q 112.45 61.61 112.42 59.82 Q 112.41 59.25 112.98 59.25 Z M 134.0316 53.9686 A 0.65 0.65 0.0 0 0 133.3805 53.3197 L 133.0205 53.3203 A 0.65 0.65 0.0 0 0 132.3716 53.9715 L 132.3884 63.5714 A 0.65 0.65 0.0 0 0 133.0395 64.2203 L 133.3995 64.2197 A 0.65 0.65 0.0 0 0 134.0484 63.5685 L 134.0316 53.9686 Z M 155.20 57.03 L 159.95 63.99 A 0.85 0.85 0.0 0 0 161.50 63.52 L 161.61 54.11 Q 161.61 53.60 161.12 53.49 L 160.29 53.31 Q 159.79 53.20 159.80 53.72 L 159.88 60.03 A 0.35 0.35 0.0 0 1 159.23 60.23 L 155.02 53.75 A 1.17 1.17 0.0 0 0 152.87 54.37 L 152.73 63.38 A 0.99 0.99 0.0 0 0 154.71 63.45 Q 154.91 60.31 154.66 57.22 A 0.30 0.30 0.0 0 1 155.20 57.03 Z M 213.5737 54.1949 A 0.89 0.89 0.0 0 0 212.6883 53.3002 L 212.6283 53.2999 A 0.89 0.89 0.0 0 0 211.7337 54.1852 L 211.6863 63.2251 A 0.89 0.89 0.0 0 0 212.5717 64.1198 L 212.6317 64.1201 A 0.89 0.89 0.0 0 0 213.5263 63.2348 L 213.5737 54.1949 Z"
        data-c-fill="20202" data-o-fill=".004" />
    <path fill="#0077e7"
        d="M 25.36 0.00 L 26.82 0.00 Q 36.32 3.52 45.80 0.00 L 47.50 0.00 Q 52.32 0.58 54.07 3.99 Q 57.77 11.21 63.63 14.79 Q 67.68 17.27 68.41 18.21 C 70.87 21.34 70.48 23.84 69.24 27.86 Q 67.24 34.33 69.42 40.76 C 71.04 45.52 69.95 49.75 65.41 52.17 C 60.76 54.65 57.57 57.24 55.01 61.91 Q 53.25 65.11 51.90 66.11 C 47.06 69.70 43.73 66.69 39.14 66.23 Q 36.50 65.97 33.85 66.14 C 28.72 66.48 26.07 69.73 20.76 66.20 Q 19.32 65.25 17.98 62.67 Q 14.56 56.07 8.09 52.52 C 2.67 49.56 1.42 46.46 3.16 40.59 Q 4.52 36.01 4.07 31.27 C 3.60 26.47 0.38 23.07 4.28 18.09 Q 5.34 16.73 8.67 14.98 Q 14.88 11.72 17.43 6.19 Q 20.07 0.50 25.36 0.00 Z M 28.34 65.47 Q 36.14 63.45 43.83 65.54 Q 47.04 66.42 48.68 66.01 Q 51.53 65.31 52.82 62.80 Q 57.00 54.70 64.01 50.99 C 68.87 48.42 69.19 45.53 67.64 40.22 Q 65.72 33.69 67.79 27.17 C 69.96 20.37 67.05 18.25 61.23 15.31 Q 59.09 14.23 56.14 10.57 C 51.84 5.22 52.20 -0.22 43.20 2.44 Q 36.04 4.56 28.86 2.31 Q 26.13 1.45 24.49 1.84 C 19.51 3.02 19.36 6.89 16.96 9.90 Q 13.80 13.86 9.42 16.40 Q 5.91 18.44 5.05 19.65 Q 3.19 22.29 4.21 25.51 C 6.24 31.97 6.31 35.67 4.41 41.58 C 1.94 49.27 8.69 50.24 12.83 53.82 Q 16.75 57.20 19.91 63.06 Q 21.17 65.39 23.83 65.96 Q 25.27 66.26 28.34 65.47 Z"
        data-c-fill="fefefe" />
    <path fill="#c8c8c8" fill-opacity=".004" d="M 26.82 0.00 L 45.80 0.00 Q 36.32 3.52 26.82 0.00 Z" data-c-fill="20202"
        data-o-fill=".004" />
    <path fill="#c8c8c8" fill-opacity=".004"
        d="M 23.83 65.96 Q 21.17 65.39 19.91 63.06 Q 16.75 57.20 12.83 53.82 C 8.69 50.24 1.94 49.27 4.41 41.58 C 6.31 35.67 6.24 31.97 4.21 25.51 Q 3.19 22.29 5.05 19.65 Q 5.91 18.44 9.42 16.40 Q 13.80 13.86 16.96 9.90 C 19.36 6.89 19.51 3.02 24.49 1.84 Q 26.13 1.45 28.86 2.31 Q 36.04 4.56 43.20 2.44 C 52.20 -0.22 51.84 5.22 56.14 10.57 Q 59.09 14.23 61.23 15.31 C 67.05 18.25 69.96 20.37 67.79 27.17 Q 65.72 33.69 67.64 40.22 C 69.19 45.53 68.87 48.42 64.01 50.99 Q 57.00 54.70 52.82 62.80 Q 51.53 65.31 48.68 66.01 Q 47.04 66.42 43.83 65.54 Q 36.14 63.45 28.34 65.47 Q 25.27 66.26 23.83 65.96 Z M 66.89 41.50 Q 64.61 34.04 66.56 27.59 C 68.26 21.94 66.46 19.68 61.48 16.75 Q 56.11 13.59 53.09 8.07 C 51.54 5.24 50.21 3.68 47.22 3.14 Q 45.72 2.86 42.13 3.92 Q 35.82 5.77 29.52 3.63 C 24.11 1.79 21.81 4.13 19.07 8.77 Q 16.91 12.44 13.58 15.08 C 10.32 17.66 6.08 18.06 5.49 23.61 Q 5.35 24.95 6.43 29.24 Q 7.88 34.97 5.96 40.70 Q 5.14 43.13 5.49 44.71 C 6.79 50.54 10.71 50.01 14.18 53.24 Q 17.37 56.19 20.11 61.14 Q 21.81 64.22 25.22 64.75 Q 26.70 64.98 30.64 63.91 Q 36.96 62.18 43.27 64.31 C 49.59 66.44 51.95 62.02 54.59 57.33 Q 56.55 53.84 61.09 51.31 C 65.37 48.92 68.41 46.46 66.89 41.50 Z"
        data-c-fill="20202" data-o-fill=".004" />
    <path fill="#0077e7"
        d="M221.68 17.28Q221.43 20.96 218.17 22.7A.65.64-16.6 0 1 217.22 22.19Q216.77 17.28 217.71 12.46 217.81 11.96 217.55 11.53 216.19 9.26 218.47 7.81 218.95 7.51 219.32 7.93L220.32 9.07Q220.63 9.42 220.98 9.1L223.44 6.82A1.4 1.4 0 0 1 225.76 8.18L224.59 12.97A.4.39 77.7 0 0 225.22 13.38Q229.25 10.15 229.6 5.06C229.68 3.84 230.15 3.09 231.19 2.59A1.1 1.1 0 0 1 232.65 4.07L231.47 6.45A.52.52 0 0 0 231.77 7.17Q233.34 7.7 233.62 9.11A1.1 1.09-23.6 0 1 233.19 10.2L229.78 12.66A.56.56 0 0 0 229.84 13.6Q231.75 14.67 231.42 16.86A.95.94-14.4 0 1 231.06 17.46L227.15 20.34A.41.41 0 0 0 227.54 21.05C229.23 20.4 231.12 19.55 232.82 20.01 235.38 20.68 235.01 24.06 233.16 25.49 231.82 26.52 230.38 26.13 228.72 26.7 227.17 27.23 225.74 29.84 224.86 31.17Q224.57 31.6 224.85 32.05L227.15 35.68A.71.71 0 0 0 227.92 36Q230.1 35.47 231.79 36.86A.87.87 0 0 1 232.04 37.89Q230.89 40.59 227.98 40.11 227.33 40.01 227.24 40.67 226.69 45.01 223.49 46.42 218.26 48.72 216.73 42.69 216.62 42.26 216.8 41.86 218.98 37.09 224.25 36.04A.75.75 0 0 0 224.53 34.68Q222.11 33.01 223.45 30.32 223.68 29.85 223.17 29.94L221.46 30.24A1.02 1.02 0 0 1 221.02 28.25Q223.2 27.67 225.03 26.39 225.46 26.08 226 26.06 229.16 25.94 231.48 23.82A.77.77 0 0 0 230.7 22.52Q221.96 25.57 213.75 28.72 210.06 30.13 207.4 30.28 206.79 30.31 206.76 29.7 206.61 27.2 208.8 25.91 209.37 25.57 209.83 26.04L210.44 26.65Q210.79 27 211.26 26.82L220.43 23.32Q220.89 23.14 221.14 22.72 222.6 20.18 221.97 17.26 221.75 16.28 221.68 17.28ZM226.24 19.13Q228.15 17.82 228.05 15.64A.84.84 0 0 0 226.37 15.63Q226.29 17.12 225.42 18.27A.6.6 0 0 0 226.24 19.13ZM225.1222 39.4485A3.27 1.91-44 0 0 221.4432 40.3461 3.27 1.91-44 0 0 220.4178 43.9915 3.27 1.91-44 0 0 224.0968 43.0939 3.27 1.91-44 0 0 225.1222 39.4485ZM66.89 41.5C68.41 46.46 65.37 48.92 61.09 51.31Q56.55 53.84 54.59 57.33C51.95 62.02 49.59 66.44 43.27 64.31Q36.96 62.18 30.64 63.91 26.7 64.98 25.22 64.75 21.81 64.22 20.11 61.14 17.37 56.19 14.18 53.24C10.71 50.01 6.79 50.54 5.49 44.71Q5.14 43.13 5.96 40.7 7.88 34.97 6.43 29.24 5.35 24.95 5.49 23.61C6.08 18.06 10.32 17.66 13.58 15.08Q16.91 12.44 19.07 8.77C21.81 4.13 24.11 1.79 29.52 3.63Q35.82 5.77 42.13 3.92 45.72 2.86 47.22 3.14C50.21 3.68 51.54 5.24 53.09 8.07Q56.11 13.59 61.48 16.75C66.46 19.68 68.26 21.94 66.56 27.59Q64.61 34.04 66.89 41.5ZM34.12 6.18C28.68 5.7 24.57 1.65 20.83 8.62Q18.26 13.41 13.92 16.67C11.46 18.51 7.93 18.93 7.1 23.07Q6.8 24.55 7.79 28.29 9.34 34.1 7.72 39.91C6.67 43.65 6.45 47.07 10 48.94Q17.12 52.68 20.56 58.78C22.32 61.91 24.72 64.3 28.24 63.18Q36.24 60.63 42.9 62.69C47.98 64.26 49.7 62.78 52.31 58.32Q55.7 52.52 62.82 48.84 65.05 47.69 65.62 44.98 65.94 43.47 65.05 40.58 62.9 33.64 65.21 26.72C66.2 23.74 65.44 20.35 62.76 18.95Q55.15 15 51.81 8.64C49.58 4.41 47.06 3.97 42.43 5.35Q38.36 6.56 34.12 6.18Z"
        data-c-fill="fefefe" />
    <path fill="#c8c8c8" fill-opacity=".004"
        d="M 34.12 6.18 Q 38.36 6.56 42.43 5.35 C 47.06 3.97 49.58 4.41 51.81 8.64 Q 55.15 15.00 62.76 18.95 C 65.44 20.35 66.20 23.74 65.21 26.72 Q 62.90 33.64 65.05 40.58 Q 65.94 43.47 65.62 44.98 Q 65.05 47.69 62.82 48.84 Q 55.70 52.52 52.31 58.32 C 49.70 62.78 47.98 64.26 42.90 62.69 Q 36.24 60.63 28.24 63.18 C 24.72 64.30 22.32 61.91 20.56 58.78 Q 17.12 52.68 10.00 48.94 C 6.45 47.07 6.67 43.65 7.72 39.91 Q 9.34 34.10 7.79 28.29 Q 6.80 24.55 7.10 23.07 C 7.93 18.93 11.46 18.51 13.92 16.67 Q 18.26 13.41 20.83 8.62 C 24.57 1.65 28.68 5.70 34.12 6.18 Z M 29.14 9.03 Q 29.59 8.25 29.62 7.47 Q 29.63 7.24 29.51 7.09 Q 29.31 6.86 29.04 6.88 A 0.50 0.50 0.0 0 0 28.58 7.33 L 28.31 10.75 A 0.56 0.54 12.0 0 0 28.69 11.32 L 29.51 11.61 A 0.36 0.36 0.0 0 1 29.66 12.20 L 28.55 13.38 Q 27.99 13.98 28.70 14.40 L 30.40 15.38 Q 30.76 15.59 30.76 16.00 L 30.76 16.72 A 0.30 0.30 0.0 0 0 31.32 16.87 Q 32.28 15.17 31.69 13.32 Q 31.53 12.82 32.04 12.69 L 32.78 12.51 A 0.31 0.31 0.0 0 0 32.73 11.90 Q 30.69 11.73 30.87 9.80 Q 30.92 9.26 30.39 9.37 L 29.51 9.55 Q 28.76 9.70 29.14 9.03 Z M 45.87 10.40 Q 46.90 9.34 46.37 8.03 A 0.58 0.58 0.0 0 0 45.28 8.08 L 44.21 11.64 A 0.49 0.48 17.4 0 1 43.59 11.96 L 42.20 11.50 A 0.42 0.42 0.0 0 0 41.76 12.19 L 42.81 13.31 A 0.67 0.67 0.0 0 1 42.60 14.37 L 40.76 15.23 A 0.41 0.41 0.0 0 0 40.96 16.01 Q 43.73 15.87 44.65 13.31 A 0.87 0.86 -80.9 0 1 45.43 12.74 L 46.75 12.70 A 0.51 0.51 0.0 0 0 46.99 11.75 L 45.97 11.17 A 0.49 0.48 -53.0 0 1 45.87 10.40 Z M 27.16 16.87 C 28.47 14.93 26.54 12.66 26.28 10.64 Q 26.23 10.22 25.82 10.10 L 25.27 9.93 A 0.36 0.36 0.0 0 0 24.86 10.47 Q 26.47 13.12 25.73 16.24 A 0.80 0.79 68.7 0 0 27.16 16.87 Z M 46.7908 17.3989 A 1.61 0.79 61.8 0 0 46.7262 15.6067 A 1.61 0.79 61.8 0 0 45.2692 14.5611 A 1.61 0.79 61.8 0 0 45.3338 16.3533 A 1.61 0.79 61.8 0 0 46.7908 17.3989 Z M 15.97 20.32 L 16.82 22.40 A 0.43 0.43 0.0 0 0 17.63 22.37 L 17.87 21.59 A 0.73 0.72 36.8 0 1 19.16 21.41 Q 20.02 22.67 21.14 23.72 A 0.70 0.50 79.0 0 0 21.64 22.61 Q 19.31 20.32 16.79 18.26 Q 16.44 17.97 16.35 17.52 L 16.11 16.22 A 0.45 0.44 -47.5 0 0 15.23 16.26 L 14.57 22.44 Q 14.52 22.92 14.04 22.84 L 13.62 22.76 A 0.42 0.42 0.0 0 0 13.24 23.47 L 16.22 26.60 A 0.75 0.75 0.0 0 0 17.48 25.85 Q 17.10 24.70 16.10 24.06 A 1.15 1.12 -77.4 0 1 15.58 23.22 L 15.32 20.48 A 0.34 0.34 0.0 0 1 15.97 20.32 Z M 53.56 34.01 A 17.26 17.26 0.0 0 0 36.30 16.75 A 17.26 17.26 0.0 0 0 19.04 34.01 A 17.26 17.26 0.0 0 0 36.30 51.27 A 17.26 17.26 0.0 0 0 53.56 34.01 Z M 55.98 22.23 L 54.94 23.57 A 0.66 0.65 -71.3 0 1 54.45 23.82 Q 53.60 23.87 53.49 23.37 A 0.35 0.34 79.4 0 0 53.10 23.10 Q 51.58 23.35 51.71 24.62 Q 51.77 25.25 52.37 25.42 L 55.04 26.20 A 0.44 0.44 0.0 0 0 55.59 25.70 L 55.40 24.72 Q 55.28 24.10 55.86 23.83 L 57.02 23.29 Q 57.64 23.00 57.57 23.68 Q 57.53 24.05 57.73 24.30 Q 58.06 24.71 58.64 24.56 Q 59.42 24.37 59.28 23.46 A 0.72 0.71 76.3 0 1 59.76 22.66 C 60.85 22.30 62.51 22.62 62.65 20.95 A 0.38 0.38 0.0 0 0 62.08 20.58 L 61.46 20.93 A 0.48 0.48 0.0 0 1 60.76 20.64 L 60.34 19.12 Q 60.09 18.21 59.31 18.74 L 56.44 20.65 A 0.57 0.56 49.5 0 1 55.74 20.59 L 54.13 19.11 A 0.40 0.40 0.0 0 0 53.49 19.54 Q 54.10 21.12 55.78 21.62 Q 56.32 21.79 55.98 22.23 Z M 12.74 21.52 L 12.64 20.69 A 0.46 0.46 0.0 0 0 12.05 20.31 Q 11.23 20.56 11.35 21.38 Q 11.44 22.02 12.08 21.92 L 12.48 21.86 A 0.31 0.31 0.0 0 0 12.74 21.52 Z M 15.6269 39.5485 A 2.26 0.51 -20.5 0 0 13.3314 39.8623 A 2.26 0.51 -20.5 0 0 11.3931 41.1315 A 2.26 0.51 -20.5 0 0 13.6886 40.8177 A 2.26 0.51 -20.5 0 0 15.6269 39.5485 Z M 57.93 41.45 Q 55.34 43.64 53.77 46.73 Q 53.52 47.21 53.94 47.55 L 56.31 49.45 Q 56.42 49.54 56.55 49.49 L 56.83 49.40 A 0.30 0.30 0.0 0 0 56.93 48.88 L 54.41 46.90 A 0.55 0.55 0.0 0 1 54.51 45.97 L 55.28 45.59 Q 55.79 45.35 56.29 45.61 L 58.88 47.02 A 0.28 0.28 0.0 0 0 59.19 46.55 L 56.49 44.44 A 0.71 0.71 0.0 0 1 56.41 43.39 Q 57.85 41.89 60.00 42.63 A 0.50 0.50 0.0 0 0 60.38 41.71 Q 59.10 41.07 58.51 39.77 A 0.40 0.40 0.0 0 0 57.78 40.08 L 58.08 40.88 Q 58.21 41.22 57.93 41.45 Z M 14.51 41.94 Q 13.10 42.07 12.56 43.34 Q 12.34 43.87 12.88 43.69 L 15.75 42.73 A 0.39 0.38 42.2 0 0 15.71 41.99 Q 15.23 41.87 14.51 41.94 Z M 18.1181 44.8443 A 2.38 1.96 -26.6 0 0 15.1124 44.1575 A 2.38 1.96 -26.6 0 0 13.8619 46.9757 A 2.38 1.96 -26.6 0 0 16.8676 47.6625 A 2.38 1.96 -26.6 0 0 18.1181 44.8443 Z M 16.85 49.54 Q 16.53 49.57 16.52 49.88 Q 16.52 50.36 16.98 50.26 Q 19.15 49.78 19.59 47.68 Q 19.82 46.59 19.03 47.38 L 16.95 49.49 A 0.19 0.17 14.9 0 1 16.85 49.54 Z M 52.74 50.37 L 52.02 49.93 Q 51.66 49.71 52.00 49.46 L 52.89 48.84 A 0.32 0.31 -67.0 0 0 52.66 48.27 Q 51.68 48.44 51.20 49.22 C 50.69 50.05 51.24 50.85 51.97 51.26 Q 52.42 51.52 52.53 51.01 Q 52.73 49.95 53.81 50.81 A 0.59 0.59 0.0 0 1 53.40 51.86 L 52.83 51.81 Q 52.49 51.78 52.57 52.12 Q 52.60 52.23 52.63 52.45 A 1.73 1.12 -62.4 0 0 55.17 51.02 Q 55.14 50.35 54.73 49.98 Q 54.50 49.77 54.19 49.72 Q 52.99 49.51 53.09 50.14 Q 53.16 50.64 52.74 50.37 Z M 21.5717 48.8459 A 2.38 0.51 -44.7 0 0 19.5213 50.1575 A 2.38 0.51 -44.7 0 0 18.1883 52.1941 A 2.38 0.51 -44.7 0 0 20.2387 50.8825 A 2.38 0.51 -44.7 0 0 21.5717 48.8459 Z M 22.47 53.13 L 22.07 55.24 A 0.38 0.38 0.0 0 0 22.81 55.42 L 23.98 51.28 A 0.49 0.49 0.0 0 0 23.22 50.75 L 20.17 52.96 A 0.42 0.42 0.0 0 0 20.59 53.68 L 22.19 52.92 A 0.20 0.20 0.0 0 1 22.47 53.13 Z M 48.89 51.65 L 51.14 54.36 Q 51.72 55.07 51.58 54.16 Q 51.21 51.88 49.34 50.95 A 1.59 1.59 0.0 0 0 47.56 53.54 Q 48.42 54.34 48.71 55.25 Q 49.06 56.37 49.36 55.24 Q 49.87 53.32 48.42 52.70 A 0.44 0.43 -76.8 0 1 48.16 52.27 Q 48.17 52.08 48.18 51.88 A 0.40 0.40 0.0 0 1 48.89 51.65 Z M 24.42 55.87 Q 24.13 56.74 24.81 56.13 Q 25.95 55.10 26.51 52.74 Q 26.75 51.71 26.08 52.53 Q 25.13 53.69 24.42 55.87 Z M 44.99 54.72 L 44.92 54.46 Q 44.78 53.96 45.19 53.64 L 45.73 53.22 Q 46.49 52.63 45.54 52.80 Q 42.12 53.41 41.88 56.70 A 0.29 0.29 0.0 0 1 41.31 56.74 Q 40.93 54.79 39.17 54.76 Q 38.62 54.75 38.32 55.22 Q 37.35 56.79 37.84 58.63 A 0.46 0.46 0.0 0 0 38.74 58.49 L 38.64 55.71 Q 38.62 55.17 39.16 55.19 L 39.44 55.20 A 0.28 0.28 0.0 0 1 39.69 55.35 L 41.47 58.51 A 0.54 0.54 0.0 0 0 42.47 58.32 L 42.90 55.13 A 0.94 0.94 0.0 0 1 43.28 54.51 L 43.66 54.24 A 0.33 0.32 68.0 0 1 44.17 54.46 L 44.56 56.96 Q 44.66 57.58 45.28 57.61 Q 46.86 57.67 47.71 56.44 A 0.22 0.22 0.0 0 0 47.43 56.11 L 45.91 56.83 Q 45.38 57.08 45.30 56.50 Q 45.26 56.24 45.37 56.00 Q 45.46 55.81 46.06 55.45 Q 46.65 55.09 46.61 54.43 A 0.27 0.27 0.0 0 0 46.11 54.31 L 45.80 54.83 Q 45.27 55.72 44.99 54.72 Z M 32.28 55.53 A 0.54 0.54 0.0 0 1 33.33 55.64 Q 33.43 56.90 32.84 58.25 Q 32.74 58.48 32.96 58.78 Q 33.21 59.13 33.36 58.73 L 33.80 57.59 A 0.47 0.46 -82.9 0 1 34.19 57.28 L 34.67 57.22 A 0.24 0.24 0.0 0 1 34.93 57.41 L 35.20 58.76 A 0.44 0.43 46.7 0 0 36.05 58.79 L 37.02 54.99 Q 37.05 54.88 36.93 54.87 L 36.50 54.87 Q 35.80 54.86 35.92 55.55 Q 35.97 55.81 35.87 56.06 A 0.74 0.74 0.0 0 1 34.47 55.59 Q 34.49 55.51 34.63 55.29 Q 34.83 54.98 34.47 54.95 L 31.83 54.70 A 0.61 0.61 0.0 0 0 31.19 55.45 Q 31.51 56.79 30.54 57.58 A 0.66 0.66 0.0 0 1 29.46 57.01 L 29.72 53.88 A 0.28 0.28 0.0 0 0 29.16 53.80 L 28.47 57.01 A 1.61 1.61 0.0 0 0 31.59 57.82 L 32.28 55.53 Z"
        data-c-fill="20202" data-o-fill=".004" />
    <path fill="#0077e7"
        d="M108.22 21.83 109.32 20.94Q109.78 20.56 109.96 21.13 110.93 24.21 110.72 27.4A1.12 1.12 0 0 1 110.07 28.35Q107.67 29.43 106.72 26.98A.52.52 0 0 0 105.73 27.26Q105.9 28.21 105.01 29.43 104.63 29.95 104.15 30.17 102.15 31.1 102.58 27.66A1.83 1.77 63.7 0 1 102.8 26.97L109.39 14.78A.18.18 0 0 0 109.15 14.54Q99.44 19.66 94.95 29.55C93.95 31.77 94.18 34.29 94.13 36.7Q94.12 37.17 93.86 37.56 92.88 39.05 91.67 40.35C89.98 42.16 87.76 41.26 87.56 39.01 87.04 32.93 89.18 26.61 88.31 21.24Q87.95 19.01 89.64 18.03 90.07 17.78 90.52 18.01C92.23 18.91 94.61 19.26 94.23 21.91Q94.15 22.44 93.76 22.81C92.59 23.93 91.65 24.62 91.34 26.33Q90.56 30.67 90.04 35.02 89.97 35.68 90.49 35.27 91.44 34.52 91.57 33.49 91.94 30.35 93.13 28.29C98.87 18.34 105.24 13.97 115.39 6.87 116.7 5.96 117.78 5.62 119.21 6.28A1.3 1.3 0 0 1 119.4 8.53L112.46 13.34A.57.57 0 0 0 112.72 14.37L114.32 14.57Q114.86 14.64 114.89 15.19 115.16 21.67 114.45 28.06 114.28 29.59 114.65 32.4C114.94 34.56 114.37 36.48 114.62 38.52 114.96 41.37 115.9 45.02 112.82 46.67Q112.23 46.99 111.9 46.4L108.83 40.73A.41.41 0 0 1 109.39 40.17L111.09 41.09A.74.74 0 0 0 112.18 40.44C112.19 37.45 112.27 35.48 111.78 31.87 111.47 29.57 112.24 27.37 112.26 25.38Q112.28 21.52 112.36 17.24A1.02 1.02 0 0 0 110.45 16.73L107.81 21.49A.27.27 0 0 0 108.22 21.83ZM152.05 20.04A.4.4 0 0 0 151.48 19.49L146.78 23.35A1.6 1.6 0 0 1 144.21 21.75Q145.57 15.98 148.68 10.94A.6.6 0 0 0 148.67 10.31L148.02 9.34A.47.47 0 0 1 148.08 8.74L150.44 6.42A1.6 1.6 0 0 1 152.95 8.36L146.43 19.64A.5.5 0 0 0 146.93 20.39L147.42 20.33Q147.7 20.29 147.91 20.08 150.98 16.92 155.41 16.81A1.18 1.18 0 0 1 156.08 18.98Q151.73 21.76 149.77 26.71 149.01 28.61 148 30.13A.69.69 0 0 0 148.64 31.2L149.43 31.12Q150.12 31.05 149.96 30.37 149.49 28.51 150.76 27.22A.75.74-50.2 0 1 151.71 27.13L152.48 27.66A.49.49 0 0 0 153.24 27.32Q153.36 26.4 152.63 25.85A1.19 1.19 0 0 1 153.14 23.73Q155.5 23.29 156.19 24.21 156.51 24.64 156.63 26.31 156.73 27.59 156.2 28.39A.78.77-89 0 0 157.25 29.48Q159.87 27.86 161.88 29.95A1.3 1.3 0 0 1 160.04 31.78Q158.54 30.33 156.3 31.47C154.15 32.57 154.04 34.77 156.03 36.1A.56.56 0 0 1 156.15 36.92L154.71 38.65A2.07 2.02 72 0 0 154.28 39.52Q153.38 43.48 151.13 46.83A1.13 1.13 0 0 1 149.31 46.92Q148.72 46.21 148.82 45.01 148.89 44.21 149.64 43.12 150.9 41.31 151.56 39.14 151.72 38.6 151.18 38.49 149.65 38.19 148.42 39.15 148.06 39.45 147.61 39.28 144.63 38.18 145 35.16 145.06 34.68 144.62 34.5L141.98 33.44A1.26 1.26 0 0 1 142.42 31.01Q143.91 30.97 145.02 31.78A.47.47 0 0 0 145.74 31.57Q148.08 25.37 152.05 20.04ZM152.47 33.5Q152.62 32.02 151.55 33.05L150.03 34.5A.45.45 0 0 0 150.3 35.27Q152.27 35.45 152.47 33.5ZM149.24 34.47 148.82 33.61A.8.8 0 0 0 147.31 33.93L147.28 34.63A.59.59 0 0 0 147.88 35.24L148.78 35.23Q149.62 35.21 149.24 34.47ZM89.25 7.77A1.26 1.26 0 0 1 90.51 6.5L91.24 6.5A3.79 2.62-.1 0 1 95.03 9.11L95.03 9.45A3.79 2.62-.1 0 1 91.24 12.08L90.51 12.08A1.26 1.26 0 0 1 89.25 10.83L89.25 7.77ZM29.51 9.55 30.39 9.37Q30.92 9.26 30.87 9.8 30.69 11.73 32.73 11.9A.31.31 0 0 1 32.78 12.51L32.04 12.69Q31.53 12.82 31.69 13.32 32.28 15.17 31.32 16.87A.3.3 0 0 1 30.76 16.72L30.76 16Q30.76 15.59 30.4 15.38L28.7 14.4Q27.99 13.98 28.55 13.38L29.66 12.2A.36.36 0 0 0 29.51 11.61L28.69 11.32A.56.54 12 0 1 28.31 10.75L28.58 7.33A.5.5 0 0 1 29.04 6.88Q29.31 6.86 29.51 7.09 29.63 7.24 29.62 7.47 29.59 8.25 29.14 9.03 28.76 9.7 29.51 9.55ZM45.97 11.17 46.99 11.75A.51.51 0 0 1 46.75 12.7L45.43 12.74A.87.86-80.9 0 0 44.65 13.31Q43.73 15.87 40.96 16.01A.41.41 0 0 1 40.76 15.23L42.6 14.37A.67.67 0 0 0 42.81 13.31L41.76 12.19A.42.42 0 0 1 42.2 11.5L43.59 11.96A.49.48 17.4 0 0 44.21 11.64L45.28 8.08A.58.58 0 0 1 46.37 8.03Q46.9 9.34 45.87 10.4A.49.48-53 0 0 45.97 11.17ZM26.28 10.64C26.54 12.66 28.47 14.93 27.16 16.87A.8.79 68.7 0 1 25.73 16.24Q26.47 13.12 24.86 10.47A.36.36 0 0 1 25.27 9.93L25.82 10.1Q26.23 10.22 26.28 10.64ZM181.02 29.28C178.47 29.11 176.15 31.14 174.28 28.09Q174.02 27.67 174.22 27.22C175.68 23.92 177.61 25.75 179.76 25.46Q182.89 25.04 182.88 21.24 182.86 16.04 182.95 11.34A1.73 1.73 0 0 1 185.77 10.03Q188.8 12.49 186.59 15.97A.62.54-31.4 0 0 186.51 16.22L186.12 21.82Q186.05 22.85 186.93 22.31 190.22 20.3 191.85 22.72 192.87 24.22 191.78 25.28C190.72 26.33 188.55 26.17 187.17 26.01A2.02 2.01 5.5 0 0 184.93 27.85Q184.12 38.39 174.25 41.93A1.41 1.41 0 0 1 172.37 40.44L172.48 39.49Q172.55 38.85 173.2 38.86 176.52 38.89 178.73 35.45 180.73 32.32 181.49 29.97 181.69 29.33 181.02 29.28Z"
        data-c-fill="fefefe" />
    <ellipse fill="#0077e7" cx="0" cy="0" transform="rotate(61.8 9.665 46.445)" rx="1.61" ry=".79"
        data-c-fill="fefefe" />
    <path fill="#0077e7"
        d="M 136.54 16.60 C 140.75 19.61 133.18 25.25 131.17 17.04 A 1.47 1.46 81.0 0 1 132.48 15.23 C 133.56 15.15 135.83 16.10 136.54 16.60 Z"
        data-c-fill="fefefe" />
    <path fill="#c8c8c8" fill-opacity=".004"
        d="M 226.24 19.13 A 0.60 0.60 0.0 0 1 225.42 18.27 Q 226.29 17.12 226.37 15.63 A 0.84 0.84 0.0 0 1 228.05 15.64 Q 228.15 17.82 226.24 19.13 Z"
        data-c-fill="20202" data-o-fill=".004" />
    <path fill="#0077e7"
        d="M 15.32 20.48 L 15.58 23.22 A 1.15 1.12 -77.4 0 0 16.10 24.06 Q 17.10 24.70 17.48 25.85 A 0.75 0.75 0.0 0 1 16.22 26.60 L 13.24 23.47 A 0.42 0.42 0.0 0 1 13.62 22.76 L 14.04 22.84 Q 14.52 22.92 14.57 22.44 L 15.23 16.26 A 0.45 0.44 -47.5 0 1 16.11 16.22 L 16.35 17.52 Q 16.44 17.97 16.79 18.26 Q 19.31 20.32 21.64 22.61 A 0.70 0.50 79.0 0 1 21.14 23.72 Q 20.02 22.67 19.16 21.41 A 0.73 0.72 36.8 0 0 17.87 21.59 L 17.63 22.37 A 0.43 0.43 0.0 0 1 16.82 22.40 L 15.97 20.32 A 0.34 0.34 0.0 0 0 15.32 20.48 Z"
        data-c-fill="fefefe" />
    <path fill="#0077e7"
        d="M 53.56 34.01 A 17.26 17.26 0.0 0 1 36.30 51.27 A 17.26 17.26 0.0 0 1 19.04 34.01 A 17.26 17.26 0.0 0 1 36.30 16.75 A 17.26 17.26 0.0 0 1 53.56 34.01 Z M 23.42 26.42 C 29.02 16.44 43.62 16.37 49.33 25.81 C 53.77 33.14 51.76 41.59 44.82 46.57 Q 44.77 46.61 44.51 46.73 Q 44.12 46.91 44.16 47.49 A 0.40 0.40 0.0 0 0 44.78 47.80 C 55.45 40.88 55.22 25.23 43.54 19.53 C 31.17 13.49 17.32 24.70 20.89 38.03 C 21.57 40.58 25.19 47.47 28.44 47.73 A 0.32 0.31 -23.7 0 0 28.66 47.17 Q 16.99 37.89 23.42 26.42 Z M 32.88 39.10 L 32.88 39.85 Q 32.88 40.45 33.47 40.37 L 34.02 40.31 Q 34.63 40.23 34.87 40.81 Q 36.59 45.14 41.22 44.23 Q 41.72 44.13 41.57 43.65 Q 41.51 43.47 41.35 43.35 Q 41.11 43.18 40.62 43.25 Q 39.31 43.42 37.96 43.19 Q 37.09 43.05 37.75 42.47 Q 38.28 41.99 38.98 42.13 Q 39.61 42.25 39.35 41.66 Q 39.19 41.29 38.76 41.37 Q 36.68 41.77 35.86 40.50 A 0.91 0.91 0.0 0 1 37.00 39.17 Q 39.71 40.39 42.74 40.08 Q 43.29 40.02 43.32 40.58 L 43.40 42.03 Q 43.43 42.67 44.04 42.46 L 46.02 41.77 A 0.68 0.68 0.0 0 0 46.17 40.56 Q 44.04 39.15 41.51 39.51 Q 41.18 39.56 41.04 39.26 Q 40.97 39.13 40.90 38.99 A 0.21 0.21 0.0 0 1 41.04 38.69 L 44.75 37.78 A 0.75 0.75 0.0 0 1 45.30 37.86 Q 46.11 38.34 46.75 39.05 Q 47.04 39.36 47.27 39.41 Q 47.54 39.46 47.81 39.38 A 0.58 0.58 0.0 0 0 48.09 38.48 L 47.27 37.43 A 0.49 0.49 0.0 0 1 47.40 36.72 L 49.65 35.26 A 0.66 0.66 0.0 0 0 49.30 34.04 L 40.18 34.00 A 0.69 0.69 0.0 0 1 39.49 33.25 Q 39.50 33.02 39.51 32.82 Q 39.52 32.27 40.07 32.27 L 49.50 32.26 Q 49.95 32.26 50.02 31.80 Q 50.04 31.64 50.07 31.47 Q 50.13 31.07 49.71 31.07 L 39.97 31.18 Q 39.46 31.19 39.42 30.67 Q 39.33 29.45 40.24 29.49 Q 44.61 29.69 48.91 29.49 A 0.49 0.49 0.0 0 0 49.34 28.82 C 47.38 23.72 44.22 22.06 39.31 20.29 Q 38.51 20.01 37.98 20.35 A 0.66 0.66 0.0 0 0 38.23 21.56 Q 44.24 22.44 47.31 27.68 A 0.45 0.45 0.0 0 1 46.95 28.35 Q 39.47 28.79 32.00 28.29 Q 30.96 28.22 30.58 29.05 Q 30.32 29.63 30.95 29.67 Q 33.83 29.85 36.71 29.74 Q 37.07 29.72 37.26 29.89 Q 37.57 30.15 37.50 30.56 Q 37.42 31.03 36.94 31.03 L 31.77 31.01 A 1.58 1.54 66.6 0 1 30.68 30.56 Q 29.84 29.75 28.94 30.63 Q 28.61 30.97 28.93 31.31 Q 29.96 32.36 31.76 32.16 Q 33.95 31.92 37.11 32.34 Q 37.82 32.43 37.51 33.08 Q 36.74 34.68 37.40 36.37 A 0.83 0.82 -34.6 0 1 37.23 37.25 Q 36.04 38.50 34.26 38.48 A 0.66 0.66 0.0 0 1 33.97 37.24 Q 35.75 36.33 36.63 34.47 Q 37.00 33.69 36.14 33.65 L 30.92 33.41 A 0.74 0.73 6.4 0 0 30.17 34.00 Q 29.88 35.47 30.71 36.77 Q 30.99 37.21 30.95 37.50 Q 30.88 38.00 30.31 38.16 Q 29.79 38.31 29.49 37.86 C 28.52 36.40 28.65 32.69 27.99 32.10 A 0.80 0.79 17.3 0 0 26.67 32.79 Q 27.69 40.81 35.03 44.12 Q 35.91 44.51 35.27 43.80 Q 33.22 41.49 30.62 39.86 A 0.67 0.67 0.0 0 1 30.96 38.62 L 32.35 38.59 Q 32.88 38.57 32.88 39.10 Z M 26.90 29.06 Q 26.68 28.79 27.00 28.27 Q 29.69 23.80 34.26 21.25 Q 34.54 21.09 34.58 20.86 Q 34.64 20.54 34.34 20.66 C 25.51 24.31 21.12 34.89 28.64 42.26 Q 28.71 42.33 29.15 42.91 Q 29.48 43.33 30.03 43.50 Q 30.92 43.77 30.28 43.09 C 27.02 39.70 22.20 31.87 29.16 29.33 A 1.56 1.54 -84.6 0 0 29.95 28.67 Q 31.99 25.24 35.20 22.87 A 0.34 0.34 0.0 0 0 35.14 22.29 Q 34.84 22.16 34.62 22.33 Q 30.73 25.22 28.03 29.02 A 0.72 0.72 0.0 0 1 26.90 29.06 Z M 29.68 21.41 Q 24.76 24.04 23.11 29.45 Q 23.06 29.61 23.20 29.71 L 23.50 29.94 A 0.32 0.32 0.0 0 0 23.98 29.81 C 25.02 27.33 26.30 25.14 28.46 23.48 Q 29.38 22.78 30.08 21.89 Q 30.99 20.71 29.68 21.41 Z M 33.23 27.51 L 44.60 27.41 A 0.39 0.38 -11.9 0 0 44.95 26.88 Q 43.12 22.54 39.10 24.06 Q 38.59 24.25 38.11 24.01 L 36.76 23.34 A 0.78 0.76 35.7 0 0 35.87 23.48 L 32.82 26.53 Q 31.82 27.52 33.23 27.51 Z M 23.68 36.50 L 23.67 32.46 Q 23.67 32.12 23.33 32.15 Q 23.19 32.16 23.06 32.28 Q 22.89 32.43 22.85 32.77 Q 22.64 34.76 23.05 36.57 A 0.32 0.32 0.0 0 0 23.68 36.50 Z M 26.42 42.37 L 23.81 37.57 A 0.19 0.18 35.9 0 0 23.47 37.62 Q 23.34 38.36 23.81 39.24 Q 25.13 41.67 26.14 42.59 Q 26.93 43.32 26.42 42.37 Z M 33.42 47.13 A 1.01 1.01 0.0 0 0 31.48 46.60 Q 31.13 47.55 31.54 48.48 Q 31.74 48.94 32.17 48.70 Q 33.23 48.11 33.42 47.13 Z M 35.76 46.47 A 0.70 0.70 0.0 0 0 34.42 46.80 L 34.61 48.94 Q 34.69 49.82 35.28 49.16 Q 36.38 47.94 35.76 46.47 Z M 38.26 48.95 Q 38.70 47.98 38.89 46.81 A 0.70 0.70 0.0 0 0 37.52 46.56 Q 37.28 47.71 37.63 48.90 A 0.34 0.34 0.0 0 0 38.26 48.95 Z M 41.39 47.29 L 41.70 46.78 A 0.31 0.30 -69.0 0 0 41.50 46.32 L 40.66 46.17 A 0.37 0.37 0.0 0 0 40.24 46.64 L 40.91 48.78 Q 41.08 49.33 41.57 49.02 L 41.94 48.79 Q 42.29 48.57 41.94 48.34 L 41.56 48.08 Q 41.09 47.76 41.39 47.29 Z"
        data-c-fill="fefefe" />
    <path fill="#c8c8c8" fill-opacity=".004"
        d="M 49.33 25.81 C 43.62 16.37 29.02 16.44 23.42 26.42 Q 16.99 37.89 28.66 47.17 A 0.32 0.31 -23.7 0 1 28.44 47.73 C 25.19 47.47 21.57 40.58 20.89 38.03 C 17.32 24.70 31.17 13.49 43.54 19.53 C 55.22 25.23 55.45 40.88 44.78 47.80 A 0.40 0.40 0.0 0 1 44.16 47.49 Q 44.12 46.91 44.51 46.73 Q 44.77 46.61 44.82 46.57 C 51.76 41.59 53.77 33.14 49.33 25.81 Z"
        data-c-fill="20202" data-o-fill=".004" />
    <path fill="#0077e7"
        d="M55.78 21.62Q54.1 21.12 53.49 19.54A.4.4 0 0 1 54.13 19.11L55.74 20.59A.57.56 49.5 0 0 56.44 20.65L59.31 18.74Q60.09 18.21 60.34 19.12L60.76 20.64A.48.48 0 0 0 61.46 20.93L62.08 20.58A.38.38 0 0 1 62.65 20.95C62.51 22.62 60.85 22.3 59.76 22.66A.72.71 76.3 0 0 59.28 23.46Q59.42 24.37 58.64 24.56 58.06 24.71 57.73 24.3 57.53 24.05 57.57 23.68 57.64 23 57.02 23.29L55.86 23.83Q55.28 24.1 55.4 24.72L55.59 25.7A.44.44 0 0 1 55.04 26.2L52.37 25.42Q51.77 25.25 51.71 24.62 51.58 23.35 53.1 23.1A.35.34 79.4 0 1 53.49 23.37Q53.6 23.87 54.45 23.82A.66.65-71.3 0 0 54.94 23.57L55.98 22.23Q56.32 21.79 55.78 21.62ZM12.74 21.52A.31.31 0 0 1 12.48 21.86L12.08 21.92Q11.44 22.02 11.35 21.38 11.23 20.56 12.05 20.31A.46.46 0 0 1 12.64 20.69L12.74 21.52Z"
        data-c-fill="fefefe" />
    <path fill="#c8c8c8" fill-opacity=".004"
        d="M 32.35 38.59 L 30.96 38.62 A 0.67 0.67 0.0 0 0 30.62 39.86 Q 33.22 41.49 35.27 43.80 Q 35.91 44.51 35.03 44.12 Q 27.69 40.81 26.67 32.79 A 0.80 0.79 17.3 0 1 27.99 32.10 C 28.65 32.69 28.52 36.40 29.49 37.86 Q 29.79 38.31 30.31 38.16 Q 30.88 38.00 30.95 37.50 Q 30.99 37.21 30.71 36.77 Q 29.88 35.47 30.17 34.00 A 0.74 0.73 6.4 0 1 30.92 33.41 L 36.14 33.65 Q 37.00 33.69 36.63 34.47 Q 35.75 36.33 33.97 37.24 A 0.66 0.66 0.0 0 0 34.26 38.48 Q 36.04 38.50 37.23 37.25 A 0.83 0.82 -34.6 0 0 37.40 36.37 Q 36.74 34.68 37.51 33.08 Q 37.82 32.43 37.11 32.34 Q 33.95 31.92 31.76 32.16 Q 29.96 32.36 28.93 31.31 Q 28.61 30.97 28.94 30.63 Q 29.84 29.75 30.68 30.56 A 1.58 1.54 66.6 0 0 31.77 31.01 L 36.94 31.03 Q 37.42 31.03 37.50 30.56 Q 37.57 30.15 37.26 29.89 Q 37.07 29.72 36.71 29.74 Q 33.83 29.85 30.95 29.67 Q 30.32 29.63 30.58 29.05 Q 30.96 28.22 32.00 28.29 Q 39.47 28.79 46.95 28.35 A 0.45 0.45 0.0 0 0 47.31 27.68 Q 44.24 22.44 38.23 21.56 A 0.66 0.66 0.0 0 1 37.98 20.35 Q 38.51 20.01 39.31 20.29 C 44.22 22.06 47.38 23.72 49.34 28.82 A 0.49 0.49 0.0 0 1 48.91 29.49 Q 44.61 29.69 40.24 29.49 Q 39.33 29.45 39.42 30.67 Q 39.46 31.19 39.97 31.18 L 49.71 31.07 Q 50.13 31.07 50.07 31.47 Q 50.04 31.64 50.02 31.80 Q 49.95 32.26 49.50 32.26 L 40.07 32.27 Q 39.52 32.27 39.51 32.82 Q 39.50 33.02 39.49 33.25 A 0.69 0.69 0.0 0 0 40.18 34.00 L 49.30 34.04 A 0.66 0.66 0.0 0 1 49.65 35.26 L 47.40 36.72 A 0.49 0.49 0.0 0 0 47.27 37.43 L 48.09 38.48 A 0.58 0.58 0.0 0 1 47.81 39.38 Q 47.54 39.46 47.27 39.41 Q 47.04 39.36 46.75 39.05 Q 46.11 38.34 45.30 37.86 A 0.75 0.75 0.0 0 0 44.75 37.78 L 41.04 38.69 A 0.21 0.21 0.0 0 0 40.90 38.99 Q 40.97 39.13 41.04 39.26 Q 41.18 39.56 41.51 39.51 Q 44.04 39.15 46.17 40.56 A 0.68 0.68 0.0 0 1 46.02 41.77 L 44.04 42.46 Q 43.43 42.67 43.40 42.03 L 43.32 40.58 Q 43.29 40.02 42.74 40.08 Q 39.71 40.39 37.00 39.17 A 0.91 0.91 0.0 0 0 35.86 40.50 Q 36.68 41.77 38.76 41.37 Q 39.19 41.29 39.35 41.66 Q 39.61 42.25 38.98 42.13 Q 38.28 41.99 37.75 42.47 Q 37.09 43.05 37.96 43.19 Q 39.31 43.42 40.62 43.25 Q 41.11 43.18 41.35 43.35 Q 41.51 43.47 41.57 43.65 Q 41.72 44.13 41.22 44.23 Q 36.59 45.14 34.87 40.81 Q 34.63 40.23 34.02 40.31 L 33.47 40.37 Q 32.88 40.45 32.88 39.85 L 32.88 39.10 Q 32.88 38.57 32.35 38.59 Z M 35.11 35.36 A 0.23 0.22 -62.9 0 0 35.01 35.03 Q 32.91 34.16 31.30 35.54 A 0.52 0.52 0.0 0 0 31.41 36.40 Q 33.67 37.53 35.11 35.36 Z M 40.9460 35.6117 A 1.43 1.29 -32.5 0 0 39.0469 35.2920 A 1.43 1.29 -32.5 0 0 38.5340 37.1483 A 1.43 1.29 -32.5 0 0 40.4331 37.4680 A 1.43 1.29 -32.5 0 0 40.9460 35.6117 Z M 46.6123 35.7463 A 0.45 0.45 0.0 0 0 46.1678 35.2908 L 42.7681 35.2493 A 0.45 0.45 0.0 0 0 42.3126 35.6937 L 42.3077 36.0937 A 0.45 0.45 0.0 0 0 42.7522 36.5492 L 46.1519 36.5907 A 0.45 0.45 0.0 0 0 46.6074 36.1463 L 46.6123 35.7463 Z"
        data-c-fill="20202" data-o-fill=".004" />
    <path fill="#c8c8c8" fill-opacity=".004"
        d="M 26.90 29.06 A 0.72 0.72 0.0 0 0 28.03 29.02 Q 30.73 25.22 34.62 22.33 Q 34.84 22.16 35.14 22.29 A 0.34 0.34 0.0 0 1 35.20 22.87 Q 31.99 25.24 29.95 28.67 A 1.56 1.54 -84.6 0 1 29.16 29.33 C 22.20 31.87 27.02 39.70 30.28 43.09 Q 30.92 43.77 30.03 43.50 Q 29.48 43.33 29.15 42.91 Q 28.71 42.33 28.64 42.26 C 21.12 34.89 25.51 24.31 34.34 20.66 Q 34.64 20.54 34.58 20.86 Q 34.54 21.09 34.26 21.25 Q 29.69 23.80 27.00 28.27 Q 26.68 28.79 26.90 29.06 Z"
        data-c-fill="20202" data-o-fill=".004" />
    <path fill="#c8c8c8" fill-opacity=".004"
        d="M30.08 21.89Q29.38 22.78 28.46 23.48C26.3 25.14 25.02 27.33 23.98 29.81A.32.32 0 0 1 23.5 29.94L23.2 29.71Q23.06 29.61 23.11 29.45 24.76 24.04 29.68 21.41 30.99 20.71 30.08 21.89ZM44.6 27.41 33.23 27.51Q31.82 27.52 32.82 26.53L35.87 23.48A.78.76 35.7 0 1 36.76 23.34L38.11 24.01Q38.59 24.25 39.1 24.06 43.12 22.54 44.95 26.88A.39.38-11.9 0 1 44.6 27.41ZM42.6106 25.6528A.39.39 0 0 0 42.222 25.2615L35.642 25.2385A.39.39 0 0 0 35.2507 25.6272L35.2494 25.9872A.39.39 0 0 0 35.638 26.3785L42.218 26.4015A.39.39 0 0 0 42.6093 26.0128L42.6106 25.6528Z"
        data-c-fill="20202" data-o-fill=".004" />
    <path fill="#0077e7"
        d="M 134.62 36.69 L 137.47 30.29 A 0.60 0.60 0.0 0 1 138.61 30.59 Q 138.43 32.63 137.64 34.28 Q 137.41 34.75 137.38 35.27 Q 137.14 40.75 132.91 44.16 A 0.64 0.64 0.0 0 1 132.06 44.13 C 129.03 41.26 131.09 38.45 131.54 35.62 Q 132.17 31.74 133.75 28.12 Q 133.96 27.64 133.65 27.21 Q 132.13 25.15 134.49 23.68 Q 135.03 23.35 135.49 23.79 L 137.66 25.85 A 0.68 0.68 0.0 0 1 137.79 26.68 C 137.00 28.12 135.60 28.86 134.93 30.10 Q 133.32 33.08 133.73 36.56 A 0.47 0.46 -36.4 0 0 134.62 36.69 Z"
        data-c-fill="fefefe" />
    <rect fill="#0077e7" x="-3.68" y="-.57" transform="rotate(.2 -7377.413 11165.522)" width="7.36" height="1.14"
        rx=".39" data-c-fill="fefefe" />
    <path fill="#c8c8c8" fill-opacity=".004"
        d="M23.68 36.5A.32.32 0 0 1 23.05 36.57Q22.64 34.76 22.85 32.77 22.89 32.43 23.06 32.28 23.19 32.16 23.33 32.15 23.67 32.12 23.67 32.46L23.68 36.5ZM152.47 33.5Q152.27 35.45 150.3 35.27A.45.45 0 0 1 150.03 34.5L151.55 33.05Q152.62 32.02 152.47 33.5Z"
        data-c-fill="20202" data-o-fill=".004" />
    <path fill="#0077e7"
        d="M 194.43 41.83 A 0.93 0.93 0.0 0 1 193.12 41.76 L 192.03 40.53 A 7.99 1.97 48.3 0 1 188.19 33.26 L 188.59 32.90 A 7.99 1.97 48.3 0 1 195.38 37.55 L 196.47 38.78 A 0.93 0.93 0.0 0 1 196.39 40.09 L 194.43 41.83 Z"
        data-c-fill="fefefe" />
    <path fill="#c8c8c8" fill-opacity=".004"
        d="M 149.24 34.47 Q 149.62 35.21 148.78 35.23 L 147.88 35.24 A 0.59 0.59 0.0 0 1 147.28 34.63 L 147.31 33.93 A 0.80 0.80 0.0 0 1 148.82 33.61 L 149.24 34.47 Z"
        data-c-fill="20202" data-o-fill=".004" />
    <path fill="#0077e7"
        d="M 35.11 35.36 Q 33.67 37.53 31.41 36.40 A 0.52 0.52 0.0 0 1 31.30 35.54 Q 32.91 34.16 35.01 35.03 A 0.23 0.22 -62.9 0 1 35.11 35.36 Z"
        data-c-fill="fefefe" />
    <ellipse fill="#0077e7" cx="0" cy="0" transform="rotate(-32.5 82.277 -49.98)" rx="1.43" ry="1.29"
        data-c-fill="fefefe" />
    <rect fill="#0077e7" x="-2.15" y="-.65" transform="rotate(.7 -2917.825 3657.015)" width="4.3" height="1.3" rx=".45"
        data-c-fill="fefefe" />
    <path fill="#c8c8c8" fill-opacity=".004"
        d="M 26.42 42.37 Q 26.93 43.32 26.14 42.59 Q 25.13 41.67 23.81 39.24 Q 23.34 38.36 23.47 37.62 A 0.19 0.18 35.9 0 1 23.81 37.57 L 26.42 42.37 Z"
        data-c-fill="20202" data-o-fill=".004" />
    <ellipse fill="#0077e7" cx="0" cy="0" transform="rotate(-20.5 118.297 -17.186)" rx="2.26" ry=".51"
        data-c-fill="fefefe" />
    <path fill="#0077e7"
        d="M 58.08 40.88 L 57.78 40.08 A 0.40 0.40 0.0 0 1 58.51 39.77 Q 59.10 41.07 60.38 41.71 A 0.50 0.50 0.0 0 1 60.00 42.63 Q 57.85 41.89 56.41 43.39 A 0.71 0.71 0.0 0 0 56.49 44.44 L 59.19 46.55 A 0.28 0.28 0.0 0 1 58.88 47.02 L 56.29 45.61 Q 55.79 45.35 55.28 45.59 L 54.51 45.97 A 0.55 0.55 0.0 0 0 54.41 46.90 L 56.93 48.88 A 0.30 0.30 0.0 0 1 56.83 49.40 L 56.55 49.49 Q 56.42 49.54 56.31 49.45 L 53.94 47.55 Q 53.52 47.21 53.77 46.73 Q 55.34 43.64 57.93 41.45 Q 58.21 41.22 58.08 40.88 Z"
        data-c-fill="fefefe" />
    <ellipse fill="#c8c8c8" fill-opacity=".004" cx="0" cy="0" transform="rotate(-44 163.015 -254.828)" rx="3.27"
        ry="1.91" data-c-fill="20202" data-o-fill=".004" />
    <path fill="#0077e7"
        d="M14.51 41.94Q15.23 41.87 15.71 41.99A.39.38 42.2 0 1 15.75 42.73L12.88 43.69Q12.34 43.87 12.56 43.34 13.1 42.07 14.51 41.94ZM18.1181 44.8443A2.38 1.96-26.6 0 1 16.8676 47.6625 2.38 1.96-26.6 0 1 13.8619 46.9757 2.38 1.96-26.6 0 1 15.1124 44.1575 2.38 1.96-26.6 0 1 18.1181 44.8443ZM17.4388 45.3492A1.59 1.11-19.5 0 0 15.5695 44.8337 1.59 1.11-19.5 0 0 14.4412 46.4108 1.59 1.11-19.5 0 0 16.3105 46.9263 1.59 1.11-19.5 0 0 17.4388 45.3492Z"
        data-c-fill="fefefe" />
    <ellipse fill="#c8c8c8" fill-opacity=".004" cx="0" cy="0" transform="rotate(-19.5 141.473 -23.443)" rx="1.59"
        ry="1.11" data-c-fill="20202" data-o-fill=".004" />
    <path fill="#c8c8c8" fill-opacity=".004"
        d="M33.42 47.13Q33.23 48.11 32.17 48.7 31.74 48.94 31.54 48.48 31.13 47.55 31.48 46.6A1.01 1.01 0 0 1 33.42 47.13ZM35.76 46.47Q36.38 47.94 35.28 49.16 34.69 49.82 34.61 48.94L34.42 46.8A.7.7 0 0 1 35.76 46.47ZM38.26 48.95A.34.34 0 0 1 37.63 48.9Q37.28 47.71 37.52 46.56A.7.7 0 0 1 38.89 46.81Q38.7 47.98 38.26 48.95ZM41.56 48.08 41.94 48.34Q42.29 48.57 41.94 48.79L41.57 49.02Q41.08 49.33 40.91 48.78L40.24 46.64A.37.37 0 0 1 40.66 46.17L41.5 46.32A.31.3-69 0 1 41.7 46.78L41.39 47.29Q41.09 47.76 41.56 48.08Z"
        data-c-fill="20202" data-o-fill=".004" />
    <path fill="#0077e7"
        d="M16.95 49.49 19.03 47.38Q19.82 46.59 19.59 47.68 19.15 49.78 16.98 50.26 16.52 50.36 16.52 49.88 16.53 49.57 16.85 49.54A.19.17 14.9 0 0 16.95 49.49ZM53.09 50.14Q52.99 49.51 54.19 49.72 54.5 49.77 54.73 49.98 55.14 50.35 55.17 51.02A1.73 1.12-62.4 0 1 52.63 52.45Q52.6 52.23 52.57 52.12 52.49 51.78 52.83 51.81L53.4 51.86A.59.59 0 0 0 53.81 50.81Q52.73 49.95 52.53 51.01 52.42 51.52 51.97 51.26C51.24 50.85 50.69 50.05 51.2 49.22Q51.68 48.44 52.66 48.27A.32.31-67 0 1 52.89 48.84L52 49.46Q51.66 49.71 52.02 49.93L52.74 50.37Q53.16 50.64 53.09 50.14Z"
        data-c-fill="fefefe" />
    <ellipse fill="#0077e7" cx="0" cy="0" transform="rotate(-44.7 71.377 1.084)" rx="2.38" ry=".51"
        data-c-fill="fefefe" />
    <path fill="#0077e7"
        d="M22.19 52.92 20.59 53.68A.42.42 0 0 1 20.17 52.96L23.22 50.75A.49.49 0 0 1 23.98 51.28L22.81 55.42A.38.38 0 0 1 22.07 55.24L22.47 53.13A.2.2 0 0 0 22.19 52.92ZM48.18 51.88Q48.17 52.08 48.16 52.27A.44.43-76.8 0 0 48.42 52.7Q49.87 53.32 49.36 55.24 49.06 56.37 48.71 55.25 48.42 54.34 47.56 53.54A1.59 1.59 0 0 1 49.34 50.95Q51.21 51.88 51.58 54.16 51.72 55.07 51.14 54.36L48.89 51.65A.4.4 0 0 0 48.18 51.88ZM24.42 55.87Q25.13 53.69 26.08 52.53 26.75 51.71 26.51 52.74 25.95 55.1 24.81 56.13 24.13 56.74 24.42 55.87ZM45.8 54.83 46.11 54.31A.27.27 0 0 1 46.61 54.43Q46.65 55.09 46.06 55.45 45.46 55.81 45.37 56 45.26 56.24 45.3 56.5 45.38 57.08 45.91 56.83L47.43 56.11A.22.22 0 0 1 47.71 56.44Q46.86 57.67 45.28 57.61 44.66 57.58 44.56 56.96L44.17 54.46A.33.32 68 0 0 43.66 54.24L43.28 54.51A.94.94 0 0 0 42.9 55.13L42.47 58.32A.54.54 0 0 1 41.47 58.51L39.69 55.35A.28.28 0 0 0 39.44 55.2L39.16 55.19Q38.62 55.17 38.64 55.71L38.74 58.49A.46.46 0 0 1 37.84 58.63Q37.35 56.79 38.32 55.22 38.62 54.75 39.17 54.76 40.93 54.79 41.31 56.74A.29.29 0 0 0 41.88 56.7Q42.12 53.41 45.54 52.8 46.49 52.63 45.73 53.22L45.19 53.64Q44.78 53.96 44.92 54.46L44.99 54.72Q45.27 55.72 45.8 54.83ZM103.5108 64.3445A5.75 5.2 87.5 0 1 98.0649 58.8268 5.75 5.2 87.5 0 1 103.0092 52.8555 5.75 5.2 87.5 0 1 108.4551 58.3732 5.75 5.2 87.5 0 1 103.5108 64.3445ZM103.4422 62.5884A4.02 3.5 88.4 0 0 106.8286 58.4723 4.02 3.5 88.4 0 0 103.2178 54.5516 4.02 3.5 88.4 0 0 99.8314 58.6677 4.02 3.5 88.4 0 0 103.4422 62.5884ZM203.05 56.42Q204.31 57.62 206.19 57.67 206.76 57.69 207.17 58.08L209.25 60.07Q209.68 60.47 209.46 61.02C207.64 65.39 202.58 65.42 200.56 61.2Q200.33 60.71 200.75 60.37L201.02 60.15Q201.53 59.74 201.85 60.31C202.98 62.29 205.72 64.04 207.32 61.24Q207.59 60.77 207.26 60.34 206.2 58.98 204.42 59.27 203.87 59.35 203.45 59L200.87 56.8Q200.49 56.47 200.68 56C202.3 51.97 207.88 51.71 208.88 55.96A.56.55 74.8 0 1 208.5 56.63Q207.52 56.93 207.24 56.02 207.08 55.48 206.64 55.15 204.54 53.59 202.98 55.53 202.61 56 203.05 56.42ZM218.17 54.87 216.25 55.1Q215.71 55.16 215.62 54.62L215.52 54.01A.97.96-88.2 0 1 216.68 52.91Q219.87 53.65 223.03 52.85 223.68 52.69 223.7 53.35L223.74 54.55A.59.59 0 0 1 223.04 55.15L221.22 54.82A.62.61 4.8 0 0 220.5 55.42L220.51 63.58Q220.51 64.17 219.92 64.18L219.51 64.19Q218.8 64.21 218.8 63.51L218.8 55.43A.57.56-3.2 0 0 218.17 54.87Z"
        data-c-fill="fefefe" />
    <path fill="#0077e7"
        d="M89.1 59.71 89.17 63.24A.83.82 78.6 0 1 88.64 64.04Q88.02 64.28 87.66 63.89 87.42 63.63 87.44 63.06 87.57 58.49 87.36 53.82A.77.77 0 0 1 88.83 53.46Q89.56 55.02 89.04 56.83A.49.49 0 0 0 89.51 57.46L93.48 57.45A.65.64-2.5 0 0 94.12 56.76L93.95 54.23Q93.91 53.61 94.52 53.46L95.16 53.31Q95.91 53.13 95.9 53.91L95.83 63.75A.68.68 0 0 1 94.62 64.16Q93.52 62.74 94.16 60.86 94.71 59.25 93.01 59.25L89.55 59.25Q89.09 59.25 89.1 59.71ZM123.38 61.48Q123.33 63.31 121.8 64.2A.78.77 85.8 0 1 120.69 63.24L124.51 53.84A1.22 1.22 0 0 1 126.76 53.83L130.75 63.27A.92.92 0 0 1 129.09 64.06L127.7 61.44A.89.88 75.9 0 0 126.92 60.97L123.94 60.93A.56.56 0 0 0 123.38 61.48ZM124.75 57.65 124.21 58.6Q123.83 59.27 124.6 59.26L126.32 59.24Q127.25 59.23 126.89 58.38L125.89 56.03A.47.47 0 0 0 124.99 56.21L124.97 56.82Q124.97 57.26 124.75 57.65ZM147.07 62.46A2.08 2.08 0 0 0 148.53 60.45L148.46 54.08A.65.65 0 0 1 148.83 53.48L149.45 53.18A.65.64 75.5 0 1 150.37 53.73C150.49 56.48 151.01 60.64 149.35 62.75 147.51 65.08 143.66 64.81 142.11 62.07 141.02 60.14 141.51 56.27 141.51 54.04Q141.51 53.44 142.11 53.42L142.89 53.39A.6.6 0 0 1 143.52 53.99C143.52 56.24 142.39 63.93 147.07 62.46Z"
        data-c-fill="fefefe" />
    <rect fill="#0077e7" x="-.96" y="-5.49" transform="rotate(.3 -11124.314 31624.07)" width="1.92" height="10.98"
        rx=".83" data-c-fill="fefefe" />
    <path fill="#0077e7"
        d="M172.27 60.93A.54.54 0 0 0 173.31 61Q174.52 57.42 175.57 54.38 175.84 53.61 176.35 53.4 176.79 53.22 177.31 53.3 177.95 53.39 177.71 53.98L173.8 63.52A1.12 1.12 0 0 1 171.71 63.5L168.13 54.19A.72.72 0 0 1 168.82 53.21Q169.47 53.22 169.88 54.03 171.66 57.56 172.27 60.93ZM181.26 59.74 181.25 61.87A.59.59 0 0 0 181.87 62.46L186.58 62.22Q187.22 62.19 187.3 62.82L187.4 63.64Q187.47 64.25 186.85 64.25L180.64 64.24A1.35 1.35 0 0 1 179.29 62.89L179.32 53.82A.6.6 0 0 1 179.9 53.22L186.68 53Q187.12 52.99 187.13 53.43L187.14 54.35Q187.14 55.11 186.39 55.08L181.78 54.89Q181.18 54.86 181.16 55.46L181.1 56.83A.73.73 0 0 0 181.84 57.6L186.4 57.54A.56.56 0 0 1 186.95 58.02L187.01 58.44Q187.13 59.25 186.31 59.25L181.76 59.25Q181.27 59.25 181.26 59.74ZM191.43 60.41 191.5 63.48A.65.65 0 0 1 190.77 64.14L190.25 64.06Q189.75 64 189.75 63.5L189.74 54.01Q189.74 53.54 190.2 53.42 193.92 52.41 197.47 53.78A2.16 2.15 20.8 0 1 198.72 56.55Q198.01 58.42 196.32 58.78A.43.43 0 0 0 196.14 59.53Q198.12 61.18 199.15 63.55 199.38 64.08 198.81 64.16L198.42 64.23Q197.9 64.31 197.58 63.89L194.21 59.44A1.55 1.55 0 0 0 191.43 60.41ZM192.47 54.74A1.47 1.47 0 0 0 191.89 57.61Q195.04 58.45 197.01 56.47A.68.68 0 0 0 196.62 55.32L192.47 54.74ZM230.15 57.4 232.72 53.31A.81.8 22 0 1 233.59 52.95Q234.39 53.12 234.47 53.63 234.52 53.93 234.2 54.32 232.29 56.66 230.62 59.16A1.28 1.28 0 0 0 230.4 59.91L230.44 63.6A.62.61 2.1 0 1 229.77 64.22L229.32 64.18Q228.76 64.14 228.76 63.57L228.78 59.66A1.56 1.55-63.2 0 0 228.48 58.74Q227.01 56.75 225.62 54.73 225.24 54.18 225.32 53.75 225.38 53.4 225.57 53.12A.53.53 0 0 1 226.44 53.13L229.41 57.42Q229.79 57.97 230.15 57.4ZM112.42 59.82Q112.45 61.61 112.43 63.38 112.41 64.43 111.25 64.19A.64.62 6.4 0 1 110.75 63.58L110.79 53.65Q110.79 53.08 111.34 53.24L111.9 53.39Q112.47 53.55 112.47 54.14L112.45 56.82A.62.62 0 0 0 113.07 57.44L116.89 57.47A.61.6 89.5 0 0 117.49 56.85L117.42 54.17Q117.4 53.48 118.08 53.41L118.43 53.37Q119.04 53.31 119.04 53.93L119.06 63.71Q119.06 64.23 118.54 64.23L118.1 64.23A.63.63 0 0 1 117.47 63.6L117.49 59.75Q117.49 59.25 117 59.25L112.98 59.25Q112.41 59.25 112.42 59.82Z"
        data-c-fill="fefefe" />
    <rect fill="#0077e7" x="-.83" y="-5.45" transform="rotate(-.1 33739.326 -76294.304)" width="1.66" height="10.9"
        rx=".65" data-c-fill="fefefe" />
    <path fill="#0077e7"
        d="M 154.66 57.22 Q 154.91 60.31 154.71 63.45 A 0.99 0.99 0.0 0 1 152.73 63.38 L 152.87 54.37 A 1.17 1.17 0.0 0 1 155.02 53.75 L 159.23 60.23 A 0.35 0.35 0.0 0 0 159.88 60.03 L 159.80 53.72 Q 159.79 53.20 160.29 53.31 L 161.12 53.49 Q 161.61 53.60 161.61 54.11 L 161.50 63.52 A 0.85 0.85 0.0 0 1 159.95 63.99 L 155.20 57.03 A 0.30 0.30 0.0 0 0 154.66 57.22 Z"
        data-c-fill="fefefe" />
    <rect fill="#0077e7" x="-.92" y="-5.41" transform="rotate(.3 -11106.443 40638.6)" width="1.84" height="10.82"
        rx=".89" data-c-fill="fefefe" />
    <path fill="#0077e7"
        d="M 32.28 55.53 L 31.59 57.82 A 1.61 1.61 0.0 0 1 28.47 57.01 L 29.16 53.80 A 0.28 0.28 0.0 0 1 29.72 53.88 L 29.46 57.01 A 0.66 0.66 0.0 0 0 30.54 57.58 Q 31.51 56.79 31.19 55.45 A 0.61 0.61 0.0 0 1 31.83 54.70 L 34.47 54.95 Q 34.83 54.98 34.63 55.29 Q 34.49 55.51 34.47 55.59 A 0.74 0.74 0.0 0 0 35.87 56.06 Q 35.97 55.81 35.92 55.55 Q 35.80 54.86 36.50 54.87 L 36.93 54.87 Q 37.05 54.88 37.02 54.99 L 36.05 58.79 A 0.44 0.43 46.7 0 1 35.20 58.76 L 34.93 57.41 A 0.24 0.24 0.0 0 0 34.67 57.22 L 34.19 57.28 A 0.47 0.46 -82.9 0 0 33.80 57.59 L 33.36 58.73 Q 33.21 59.13 32.96 58.78 Q 32.74 58.48 32.84 58.25 Q 33.43 56.90 33.33 55.64 A 0.54 0.54 0.0 0 0 32.28 55.53 Z"
        data-c-fill="fefefe" />
    <ellipse fill="#c8c8c8" fill-opacity=".004" cx="0" cy="0" transform="rotate(88.4 21.55 82.413)" rx="4.02" ry="3.5"
        data-c-fill="20202" data-o-fill=".004" />
    <path fill="#c8c8c8" fill-opacity=".004"
        d="M192.47 54.74 196.62 55.32A.68.68 0 0 1 197.01 56.47Q195.04 58.45 191.89 57.61A1.47 1.47 0 0 1 192.47 54.74ZM124.97 56.82 124.99 56.21A.47.47 0 0 1 125.89 56.03L126.89 58.38Q127.25 59.23 126.32 59.24L124.6 59.26Q123.83 59.27 124.21 58.6L124.75 57.65Q124.97 57.26 124.97 56.82Z"
        data-c-fill="20202" data-o-fill=".004" />
</svg>